<mxfile host="65bd71144e" scale="2" border="30">
    <diagram id="0QhtwqMjpmc_AO-MrRb4" name="第 1 页">
        <mxGraphModel dx="1767" dy="1015" grid="1" gridSize="10" guides="1" tooltips="1" connect="1" arrows="1" fold="1" page="1" pageScale="1" pageWidth="1654" pageHeight="2336" math="0" shadow="0">
            <root>
                <mxCell id="0"/>
                <mxCell id="1" parent="0"/>
                <mxCell id="983" value="&lt;b&gt;&lt;font face=&quot;Tahoma&quot; color=&quot;#345253&quot;&gt;PartitionedPairBuffer&lt;/font&gt;&lt;/b&gt;" style="text;html=1;strokeColor=none;fillColor=none;align=center;verticalAlign=middle;whiteSpace=wrap;rounded=0;fontColor=#FFFFFF;" vertex="1" parent="1">
                    <mxGeometry x="239" y="190" width="182" height="20" as="geometry"/>
                </mxCell>
                <mxCell id="984" value="&lt;font face=&quot;Tahoma&quot; color=&quot;#345253&quot;&gt;&lt;b&gt;PartitionedAppendOnlyMap&lt;/b&gt;&lt;/font&gt;" style="text;html=1;strokeColor=none;fillColor=none;align=center;verticalAlign=middle;whiteSpace=wrap;rounded=0;fontColor=#FFFFFF;" vertex="1" parent="1">
                    <mxGeometry x="239" y="403" width="182" height="20" as="geometry"/>
                </mxCell>
                <mxCell id="988" style="edgeStyle=orthogonalEdgeStyle;rounded=0;html=1;entryX=0;entryY=0;entryDx=0;entryDy=0;endArrow=block;endFill=1;strokeColor=#999999;" edge="1" parent="1" source="986" target="981">
                    <mxGeometry relative="1" as="geometry"/>
                </mxCell>
                <mxCell id="986" value="&lt;font face=&quot;Tahoma&quot; color=&quot;#345253&quot;&gt;&lt;b&gt;(K6, V6)&lt;/b&gt;&lt;/font&gt;" style="rounded=1;whiteSpace=wrap;html=1;strokeColor=none;fillColor=#EDF2F4;arcSize=50;" vertex="1" parent="1">
                    <mxGeometry x="410" y="40" width="80" height="30" as="geometry"/>
                </mxCell>
                <mxCell id="989" value="&lt;i&gt;&lt;font face=&quot;Tahoma&quot; style=&quot;font-size: 11px&quot; color=&quot;#345253&quot;&gt;insert&lt;/font&gt;&lt;/i&gt;" style="text;html=1;strokeColor=none;fillColor=none;align=center;verticalAlign=middle;whiteSpace=wrap;rounded=0;" vertex="1" parent="1">
                    <mxGeometry x="450" y="80" width="40" height="20" as="geometry"/>
                </mxCell>
                <mxCell id="1007" value="&lt;font face=&quot;Tahoma&quot; color=&quot;#345253&quot;&gt;&lt;b&gt;(K3, V3)&lt;/b&gt;&lt;/font&gt;" style="rounded=1;whiteSpace=wrap;html=1;strokeColor=none;fillColor=#EDF2F4;arcSize=50;" vertex="1" parent="1">
                    <mxGeometry x="260" y="253" width="80" height="30" as="geometry"/>
                </mxCell>
                <mxCell id="1008" value="&lt;font color=&quot;#345253&quot; face=&quot;Tahoma&quot;&gt;&lt;span style=&quot;font-size: 11px&quot;&gt;&lt;i&gt;changeValue&lt;/i&gt;&lt;/span&gt;&lt;/font&gt;" style="text;html=1;strokeColor=none;fillColor=none;align=center;verticalAlign=middle;whiteSpace=wrap;rounded=0;" vertex="1" parent="1">
                    <mxGeometry x="300" y="293" width="80" height="20" as="geometry"/>
                </mxCell>
                <mxCell id="1036" value="&lt;font face=&quot;Tahoma&quot;&gt;&lt;b&gt;(partition ID, K)&lt;/b&gt;&lt;/font&gt;" style="rounded=0;whiteSpace=wrap;html=1;strokeWidth=2;fontSize=11;fontColor=#345253;fillColor=#EDF2F4;strokeColor=none;" vertex="1" parent="1">
                    <mxGeometry x="85.38" y="40" width="99.25" height="30" as="geometry"/>
                </mxCell>
                <mxCell id="1037" style="rounded=0;html=1;exitX=0;exitY=0;exitDx=0;exitDy=0;entryX=0;entryY=1;entryDx=0;entryDy=0;endArrow=none;endFill=0;dashed=1;strokeColor=#999999;" edge="1" parent="1" source="970" target="1036">
                    <mxGeometry relative="1" as="geometry"/>
                </mxCell>
                <mxCell id="1038" style="edgeStyle=none;rounded=0;html=1;exitX=1;exitY=0;exitDx=0;exitDy=0;entryX=1;entryY=1;entryDx=0;entryDy=0;dashed=1;endArrow=none;endFill=0;strokeColor=#999999;" edge="1" parent="1" source="970" target="1036">
                    <mxGeometry relative="1" as="geometry"/>
                </mxCell>
                <mxCell id="1039" value="&lt;font face=&quot;Tahoma&quot;&gt;&lt;b&gt;(partition ID, K)&lt;/b&gt;&lt;/font&gt;" style="rounded=0;whiteSpace=wrap;html=1;strokeWidth=2;fontSize=11;fontColor=#345253;fillColor=#EDF2F4;strokeColor=none;" vertex="1" parent="1">
                    <mxGeometry x="85.38" y="253" width="99.25" height="30" as="geometry"/>
                </mxCell>
                <mxCell id="1040" style="edgeStyle=none;rounded=0;html=1;exitX=0;exitY=0;exitDx=0;exitDy=0;entryX=0;entryY=1;entryDx=0;entryDy=0;dashed=1;endArrow=none;endFill=0;strokeColor=#999999;" edge="1" parent="1" source="1011" target="1039">
                    <mxGeometry relative="1" as="geometry"/>
                </mxCell>
                <mxCell id="1041" style="edgeStyle=none;rounded=0;html=1;exitX=1;exitY=0;exitDx=0;exitDy=0;entryX=1;entryY=1;entryDx=0;entryDy=0;dashed=1;endArrow=none;endFill=0;strokeColor=#999999;" edge="1" parent="1" source="1011" target="1039">
                    <mxGeometry relative="1" as="geometry"/>
                </mxCell>
                <mxCell id="1042" value="" style="group" vertex="1" connectable="0" parent="1">
                    <mxGeometry x="120" y="110" width="420" height="70" as="geometry"/>
                </mxCell>
                <mxCell id="993" value="&lt;font color=&quot;#345253&quot;&gt;0&lt;/font&gt;" style="text;html=1;strokeColor=none;fillColor=none;align=center;verticalAlign=middle;whiteSpace=wrap;rounded=0;fontStyle=2" vertex="1" parent="1042">
                    <mxGeometry x="2.5" y="50" width="25" height="20" as="geometry"/>
                </mxCell>
                <mxCell id="970" value="&lt;font face=&quot;Tahoma&quot; color=&quot;#ffffff&quot;&gt;&lt;b&gt;K1&lt;/b&gt;&lt;/font&gt;" style="rounded=0;whiteSpace=wrap;html=1;strokeColor=#FFFFFF;fillColor=#6E96A6;" vertex="1" parent="1042">
                    <mxGeometry width="30" height="50" as="geometry"/>
                </mxCell>
                <mxCell id="971" value="&lt;font color=&quot;#345253&quot; face=&quot;Tahoma&quot;&gt;&lt;b&gt;V1&lt;/b&gt;&lt;/font&gt;" style="rounded=0;whiteSpace=wrap;html=1;strokeColor=#FFFFFF;fillColor=#CAD9DF;" vertex="1" parent="1042">
                    <mxGeometry x="30" width="30" height="50" as="geometry"/>
                </mxCell>
                <mxCell id="972" value="&lt;font face=&quot;Tahoma&quot;&gt;&lt;b&gt;K2&lt;/b&gt;&lt;/font&gt;" style="rounded=0;whiteSpace=wrap;html=1;strokeColor=#FFFFFF;fillColor=#6E96A6;fontColor=#FFFFFF;" vertex="1" parent="1042">
                    <mxGeometry x="60" width="30" height="50" as="geometry"/>
                </mxCell>
                <mxCell id="973" value="&lt;font color=&quot;#345253&quot; face=&quot;Tahoma&quot;&gt;&lt;b&gt;V2&lt;/b&gt;&lt;/font&gt;" style="rounded=0;whiteSpace=wrap;html=1;strokeColor=#FFFFFF;fillColor=#CAD9DF;" vertex="1" parent="1042">
                    <mxGeometry x="90" width="30" height="50" as="geometry"/>
                </mxCell>
                <mxCell id="974" value="&lt;font face=&quot;Tahoma&quot;&gt;&lt;b&gt;K3&lt;/b&gt;&lt;/font&gt;" style="rounded=0;whiteSpace=wrap;html=1;strokeColor=#FFFFFF;fillColor=#6E96A6;fontColor=#FFFFFF;" vertex="1" parent="1042">
                    <mxGeometry x="120" width="30" height="50" as="geometry"/>
                </mxCell>
                <mxCell id="975" value="&lt;font color=&quot;#345253&quot; face=&quot;Tahoma&quot;&gt;&lt;b&gt;V3&lt;/b&gt;&lt;/font&gt;" style="rounded=0;whiteSpace=wrap;html=1;strokeColor=#FFFFFF;fillColor=#CAD9DF;" vertex="1" parent="1042">
                    <mxGeometry x="150" width="30" height="50" as="geometry"/>
                </mxCell>
                <mxCell id="976" value="&lt;b style=&quot;font-family: &amp;#34;tahoma&amp;#34;&quot;&gt;K4&lt;/b&gt;" style="rounded=0;whiteSpace=wrap;html=1;strokeColor=#FFFFFF;fillColor=#6E96A6;fontColor=#FFFFFF;" vertex="1" parent="1042">
                    <mxGeometry x="180" width="30" height="50" as="geometry"/>
                </mxCell>
                <mxCell id="977" value="&lt;b style=&quot;color: rgb(52 , 82 , 83) ; font-family: &amp;#34;tahoma&amp;#34;&quot;&gt;V4&lt;/b&gt;" style="rounded=0;whiteSpace=wrap;html=1;strokeColor=#FFFFFF;fillColor=#CAD9DF;" vertex="1" parent="1042">
                    <mxGeometry x="210" width="30" height="50" as="geometry"/>
                </mxCell>
                <mxCell id="978" value="&lt;b style=&quot;font-family: &amp;#34;tahoma&amp;#34;&quot;&gt;K5&lt;/b&gt;" style="rounded=0;whiteSpace=wrap;html=1;strokeColor=#FFFFFF;fillColor=#6E96A6;fontColor=#FFFFFF;" vertex="1" parent="1042">
                    <mxGeometry x="240" width="30" height="50" as="geometry"/>
                </mxCell>
                <mxCell id="979" value="&lt;b style=&quot;color: rgb(52 , 82 , 83) ; font-family: &amp;#34;tahoma&amp;#34;&quot;&gt;V5&lt;/b&gt;" style="rounded=0;whiteSpace=wrap;html=1;strokeColor=#FFFFFF;fillColor=#CAD9DF;" vertex="1" parent="1042">
                    <mxGeometry x="270" width="30" height="50" as="geometry"/>
                </mxCell>
                <mxCell id="980" value="" style="rounded=0;whiteSpace=wrap;html=1;strokeColor=#FFFFFF;fillColor=#6E96A6;fontColor=#FFFFFF;" vertex="1" parent="1042">
                    <mxGeometry x="300" width="30" height="50" as="geometry"/>
                </mxCell>
                <mxCell id="981" value="" style="rounded=0;whiteSpace=wrap;html=1;strokeColor=#FFFFFF;fillColor=#CAD9DF;" vertex="1" parent="1042">
                    <mxGeometry x="330" width="30" height="50" as="geometry"/>
                </mxCell>
                <mxCell id="990" value="&lt;font face=&quot;Tahoma&quot;&gt;&lt;b&gt;...&lt;/b&gt;&lt;/font&gt;" style="rounded=0;whiteSpace=wrap;html=1;strokeColor=#FFFFFF;fillColor=#6E96A6;fontColor=#FFFFFF;" vertex="1" parent="1042">
                    <mxGeometry x="360" width="30" height="50" as="geometry"/>
                </mxCell>
                <mxCell id="991" value="&lt;font color=&quot;#345253&quot; face=&quot;Tahoma&quot;&gt;&lt;b&gt;...&lt;/b&gt;&lt;/font&gt;" style="rounded=0;whiteSpace=wrap;html=1;strokeColor=#FFFFFF;fillColor=#CAD9DF;" vertex="1" parent="1042">
                    <mxGeometry x="390" width="30" height="50" as="geometry"/>
                </mxCell>
                <mxCell id="994" value="&lt;font color=&quot;#345253&quot;&gt;1&lt;/font&gt;" style="text;html=1;strokeColor=none;fillColor=none;align=center;verticalAlign=middle;whiteSpace=wrap;rounded=0;fontStyle=2" vertex="1" parent="1042">
                    <mxGeometry x="32.5" y="50" width="25" height="20" as="geometry"/>
                </mxCell>
                <mxCell id="995" value="&lt;font color=&quot;#345253&quot;&gt;2&lt;/font&gt;" style="text;html=1;strokeColor=none;fillColor=none;align=center;verticalAlign=middle;whiteSpace=wrap;rounded=0;fontStyle=2" vertex="1" parent="1042">
                    <mxGeometry x="62.5" y="50" width="25" height="20" as="geometry"/>
                </mxCell>
                <mxCell id="996" value="&lt;font color=&quot;#345253&quot;&gt;3&lt;/font&gt;" style="text;html=1;strokeColor=none;fillColor=none;align=center;verticalAlign=middle;whiteSpace=wrap;rounded=0;fontStyle=2" vertex="1" parent="1042">
                    <mxGeometry x="92.5" y="50" width="25" height="20" as="geometry"/>
                </mxCell>
                <mxCell id="997" value="&lt;font color=&quot;#345253&quot;&gt;4&lt;/font&gt;" style="text;html=1;strokeColor=none;fillColor=none;align=center;verticalAlign=middle;whiteSpace=wrap;rounded=0;fontStyle=2" vertex="1" parent="1042">
                    <mxGeometry x="122.5" y="50" width="25" height="20" as="geometry"/>
                </mxCell>
                <mxCell id="998" value="&lt;font color=&quot;#345253&quot;&gt;5&lt;/font&gt;" style="text;html=1;strokeColor=none;fillColor=none;align=center;verticalAlign=middle;whiteSpace=wrap;rounded=0;fontStyle=2" vertex="1" parent="1042">
                    <mxGeometry x="152.5" y="50" width="25" height="20" as="geometry"/>
                </mxCell>
                <mxCell id="999" value="&lt;font color=&quot;#345253&quot;&gt;6&lt;/font&gt;" style="text;html=1;strokeColor=none;fillColor=none;align=center;verticalAlign=middle;whiteSpace=wrap;rounded=0;fontStyle=2" vertex="1" parent="1042">
                    <mxGeometry x="182.5" y="50" width="25" height="20" as="geometry"/>
                </mxCell>
                <mxCell id="1000" value="&lt;font color=&quot;#345253&quot;&gt;7&lt;/font&gt;" style="text;html=1;strokeColor=none;fillColor=none;align=center;verticalAlign=middle;whiteSpace=wrap;rounded=0;fontStyle=2" vertex="1" parent="1042">
                    <mxGeometry x="212.5" y="50" width="25" height="20" as="geometry"/>
                </mxCell>
                <mxCell id="1001" value="&lt;font color=&quot;#345253&quot;&gt;8&lt;/font&gt;" style="text;html=1;strokeColor=none;fillColor=none;align=center;verticalAlign=middle;whiteSpace=wrap;rounded=0;fontStyle=2" vertex="1" parent="1042">
                    <mxGeometry x="242.5" y="50" width="25" height="20" as="geometry"/>
                </mxCell>
                <mxCell id="1002" value="&lt;font color=&quot;#345253&quot;&gt;9&lt;/font&gt;" style="text;html=1;strokeColor=none;fillColor=none;align=center;verticalAlign=middle;whiteSpace=wrap;rounded=0;fontStyle=2" vertex="1" parent="1042">
                    <mxGeometry x="272.5" y="50" width="25" height="20" as="geometry"/>
                </mxCell>
                <mxCell id="1003" value="&lt;font color=&quot;#345253&quot;&gt;10&lt;/font&gt;" style="text;html=1;strokeColor=none;fillColor=none;align=center;verticalAlign=middle;whiteSpace=wrap;rounded=0;fontStyle=2" vertex="1" parent="1042">
                    <mxGeometry x="302.5" y="50" width="25" height="20" as="geometry"/>
                </mxCell>
                <mxCell id="1004" value="&lt;font color=&quot;#345253&quot;&gt;11&lt;/font&gt;" style="text;html=1;strokeColor=none;fillColor=none;align=center;verticalAlign=middle;whiteSpace=wrap;rounded=0;fontStyle=2" vertex="1" parent="1042">
                    <mxGeometry x="332.5" y="50" width="25" height="20" as="geometry"/>
                </mxCell>
                <mxCell id="1006" style="rounded=0;html=1;entryX=0;entryY=0;entryDx=0;entryDy=0;endArrow=block;endFill=1;exitX=0.5;exitY=1;exitDx=0;exitDy=0;strokeColor=#999999;" edge="1" parent="1" source="1007" target="1017">
                    <mxGeometry relative="1" as="geometry"/>
                </mxCell>
                <mxCell id="1010" value="&lt;font color=&quot;#345253&quot;&gt;0&lt;/font&gt;" style="text;html=1;strokeColor=none;fillColor=none;align=center;verticalAlign=middle;whiteSpace=wrap;rounded=0;fontStyle=2" vertex="1" parent="1">
                    <mxGeometry x="122.5" y="373" width="25" height="20" as="geometry"/>
                </mxCell>
                <mxCell id="1011" value="&lt;font face=&quot;Tahoma&quot; color=&quot;#ffffff&quot;&gt;&lt;b&gt;K1&lt;/b&gt;&lt;/font&gt;" style="rounded=0;whiteSpace=wrap;html=1;strokeColor=#FFFFFF;fillColor=#6E96A6;" vertex="1" parent="1">
                    <mxGeometry x="120" y="323" width="30" height="50" as="geometry"/>
                </mxCell>
                <mxCell id="1012" value="&lt;font color=&quot;#345253&quot; face=&quot;Tahoma&quot;&gt;&lt;b&gt;V1&lt;/b&gt;&lt;/font&gt;" style="rounded=0;whiteSpace=wrap;html=1;strokeColor=#FFFFFF;fillColor=#CAD9DF;" vertex="1" parent="1">
                    <mxGeometry x="150" y="323" width="30" height="50" as="geometry"/>
                </mxCell>
                <mxCell id="1013" value="" style="rounded=0;whiteSpace=wrap;html=1;strokeColor=#FFFFFF;fillColor=#6E96A6;fontColor=#FFFFFF;" vertex="1" parent="1">
                    <mxGeometry x="180" y="323" width="30" height="50" as="geometry"/>
                </mxCell>
                <mxCell id="1014" value="" style="rounded=0;whiteSpace=wrap;html=1;strokeColor=#FFFFFF;fillColor=#CAD9DF;" vertex="1" parent="1">
                    <mxGeometry x="210" y="323" width="30" height="50" as="geometry"/>
                </mxCell>
                <mxCell id="1015" value="" style="rounded=0;whiteSpace=wrap;html=1;strokeColor=#FFFFFF;fillColor=#6E96A6;fontColor=#FFFFFF;" vertex="1" parent="1">
                    <mxGeometry x="240" y="323" width="30" height="50" as="geometry"/>
                </mxCell>
                <mxCell id="1016" value="" style="rounded=0;whiteSpace=wrap;html=1;strokeColor=#FFFFFF;fillColor=#CAD9DF;" vertex="1" parent="1">
                    <mxGeometry x="270" y="323" width="30" height="50" as="geometry"/>
                </mxCell>
                <mxCell id="1017" value="" style="rounded=0;whiteSpace=wrap;html=1;strokeColor=#FFFFFF;fillColor=#6E96A6;fontColor=#FFFFFF;" vertex="1" parent="1">
                    <mxGeometry x="300" y="323" width="30" height="50" as="geometry"/>
                </mxCell>
                <mxCell id="1018" value="" style="rounded=0;whiteSpace=wrap;html=1;strokeColor=#FFFFFF;fillColor=#CAD9DF;" vertex="1" parent="1">
                    <mxGeometry x="330" y="323" width="30" height="50" as="geometry"/>
                </mxCell>
                <mxCell id="1019" value="&lt;b style=&quot;font-family: &amp;#34;tahoma&amp;#34;&quot;&gt;K2&lt;/b&gt;" style="rounded=0;whiteSpace=wrap;html=1;strokeColor=#FFFFFF;fillColor=#6E96A6;fontColor=#FFFFFF;" vertex="1" parent="1">
                    <mxGeometry x="360" y="323" width="30" height="50" as="geometry"/>
                </mxCell>
                <mxCell id="1020" value="&lt;b style=&quot;color: rgb(52 , 82 , 83) ; font-family: &amp;#34;tahoma&amp;#34;&quot;&gt;V2&lt;/b&gt;" style="rounded=0;whiteSpace=wrap;html=1;strokeColor=#FFFFFF;fillColor=#CAD9DF;" vertex="1" parent="1">
                    <mxGeometry x="390" y="323" width="30" height="50" as="geometry"/>
                </mxCell>
                <mxCell id="1021" value="" style="rounded=0;whiteSpace=wrap;html=1;strokeColor=#FFFFFF;fillColor=#6E96A6;fontColor=#FFFFFF;" vertex="1" parent="1">
                    <mxGeometry x="420" y="323" width="30" height="50" as="geometry"/>
                </mxCell>
                <mxCell id="1022" value="" style="rounded=0;whiteSpace=wrap;html=1;strokeColor=#FFFFFF;fillColor=#CAD9DF;" vertex="1" parent="1">
                    <mxGeometry x="450" y="323" width="30" height="50" as="geometry"/>
                </mxCell>
                <mxCell id="1023" value="&lt;font face=&quot;Tahoma&quot;&gt;&lt;b&gt;...&lt;/b&gt;&lt;/font&gt;" style="rounded=0;whiteSpace=wrap;html=1;strokeColor=#FFFFFF;fillColor=#6E96A6;fontColor=#FFFFFF;" vertex="1" parent="1">
                    <mxGeometry x="480" y="323" width="30" height="50" as="geometry"/>
                </mxCell>
                <mxCell id="1024" value="&lt;font color=&quot;#345253&quot; face=&quot;Tahoma&quot;&gt;&lt;b&gt;...&lt;/b&gt;&lt;/font&gt;" style="rounded=0;whiteSpace=wrap;html=1;strokeColor=#FFFFFF;fillColor=#CAD9DF;" vertex="1" parent="1">
                    <mxGeometry x="510" y="323" width="30" height="50" as="geometry"/>
                </mxCell>
                <mxCell id="1025" value="&lt;font color=&quot;#345253&quot;&gt;1&lt;/font&gt;" style="text;html=1;strokeColor=none;fillColor=none;align=center;verticalAlign=middle;whiteSpace=wrap;rounded=0;fontStyle=2" vertex="1" parent="1">
                    <mxGeometry x="152.5" y="373" width="25" height="20" as="geometry"/>
                </mxCell>
                <mxCell id="1026" value="&lt;font color=&quot;#345253&quot;&gt;2&lt;/font&gt;" style="text;html=1;strokeColor=none;fillColor=none;align=center;verticalAlign=middle;whiteSpace=wrap;rounded=0;fontStyle=2" vertex="1" parent="1">
                    <mxGeometry x="182.5" y="373" width="25" height="20" as="geometry"/>
                </mxCell>
                <mxCell id="1027" value="&lt;font color=&quot;#345253&quot;&gt;3&lt;/font&gt;" style="text;html=1;strokeColor=none;fillColor=none;align=center;verticalAlign=middle;whiteSpace=wrap;rounded=0;fontStyle=2" vertex="1" parent="1">
                    <mxGeometry x="212.5" y="373" width="25" height="20" as="geometry"/>
                </mxCell>
                <mxCell id="1028" value="&lt;font color=&quot;#345253&quot;&gt;4&lt;/font&gt;" style="text;html=1;strokeColor=none;fillColor=none;align=center;verticalAlign=middle;whiteSpace=wrap;rounded=0;fontStyle=2" vertex="1" parent="1">
                    <mxGeometry x="242.5" y="373" width="25" height="20" as="geometry"/>
                </mxCell>
                <mxCell id="1029" value="&lt;font color=&quot;#345253&quot;&gt;5&lt;/font&gt;" style="text;html=1;strokeColor=none;fillColor=none;align=center;verticalAlign=middle;whiteSpace=wrap;rounded=0;fontStyle=2" vertex="1" parent="1">
                    <mxGeometry x="272.5" y="373" width="25" height="20" as="geometry"/>
                </mxCell>
                <mxCell id="1030" value="&lt;font color=&quot;#345253&quot;&gt;6&lt;/font&gt;" style="text;html=1;strokeColor=none;fillColor=none;align=center;verticalAlign=middle;whiteSpace=wrap;rounded=0;fontStyle=2" vertex="1" parent="1">
                    <mxGeometry x="302.5" y="373" width="25" height="20" as="geometry"/>
                </mxCell>
                <mxCell id="1031" value="&lt;font color=&quot;#345253&quot;&gt;7&lt;/font&gt;" style="text;html=1;strokeColor=none;fillColor=none;align=center;verticalAlign=middle;whiteSpace=wrap;rounded=0;fontStyle=2" vertex="1" parent="1">
                    <mxGeometry x="332.5" y="373" width="25" height="20" as="geometry"/>
                </mxCell>
                <mxCell id="1032" value="&lt;font color=&quot;#345253&quot;&gt;8&lt;/font&gt;" style="text;html=1;strokeColor=none;fillColor=none;align=center;verticalAlign=middle;whiteSpace=wrap;rounded=0;fontStyle=2" vertex="1" parent="1">
                    <mxGeometry x="362.5" y="373" width="25" height="20" as="geometry"/>
                </mxCell>
                <mxCell id="1033" value="&lt;font color=&quot;#345253&quot;&gt;9&lt;/font&gt;" style="text;html=1;strokeColor=none;fillColor=none;align=center;verticalAlign=middle;whiteSpace=wrap;rounded=0;fontStyle=2" vertex="1" parent="1">
                    <mxGeometry x="392.5" y="373" width="25" height="20" as="geometry"/>
                </mxCell>
                <mxCell id="1034" value="&lt;font color=&quot;#345253&quot;&gt;10&lt;/font&gt;" style="text;html=1;strokeColor=none;fillColor=none;align=center;verticalAlign=middle;whiteSpace=wrap;rounded=0;fontStyle=2" vertex="1" parent="1">
                    <mxGeometry x="422.5" y="373" width="25" height="20" as="geometry"/>
                </mxCell>
                <mxCell id="1035" value="&lt;font color=&quot;#345253&quot;&gt;11&lt;/font&gt;" style="text;html=1;strokeColor=none;fillColor=none;align=center;verticalAlign=middle;whiteSpace=wrap;rounded=0;fontStyle=2" vertex="1" parent="1">
                    <mxGeometry x="452.5" y="373" width="25" height="20" as="geometry"/>
                </mxCell>
            </root>
        </mxGraphModel>
    </diagram>
</mxfile>